<svg width="64" height="64" viewBox="0 0 64 64" fill="none" xmlns="http://www.w3.org/2000/svg">
  <rect x="6" y="6" width="52" height="52" rx="18" fill="url(#paint0_linear)"/>
  <path d="M32 16C36.9706 16 41 20.0294 41 25V31.2C41 31.904 40.7204 32.5792 40.2225 33.0771C39.7246 33.575 39.0493 33.8545 38.3453 33.8545H33.0727V29.9273C33.0727 29.0481 33.1263 28.1375 33.5877 27.3898C33.918 26.8542 34.3597 26.3957 34.8828 26.044C35.406 25.6924 35.9988 25.4578 36.6202 25.3563L36.7884 25.3291C36.8578 25.3054 36.918 25.2607 36.9606 25.2013C37.0032 25.1418 37.0261 25.0705 37.0261 24.9973C37.0261 24.924 37.0032 24.8528 36.9606 24.7933C36.918 24.7339 36.8578 24.6892 36.7884 24.6655L36.6202 24.6383C35.7122 24.49 34.874 24.0602 34.2239 23.4102C33.5738 22.7601 33.1441 21.9219 32.9958 21.0139L32.9686 20.8457C32.9449 20.7763 32.9002 20.7161 32.8407 20.6735C32.7813 20.6309 32.71 20.608 32.6368 20.608C32.5635 20.608 32.4923 20.6309 32.4328 20.6735C32.3734 20.7161 32.3287 20.7763 32.305 20.8457L32.2778 21.0139C32.1763 21.6354 31.9417 22.2281 31.5901 22.7513C31.2384 23.2744 30.7798 23.7162 30.2443 24.0465C29.4966 24.5078 28.586 24.5615 27.7068 24.5615H23.8643C24.094 19.9146 27.9339 16 32.5808 16H32Z" fill="white"/>
  <path d="M23.8538 25.4385H27.7064C28.5856 25.4385 29.4962 25.4922 30.2439 25.9535C30.8284 26.3137 31.3201 26.8054 31.6802 27.3898C32.1416 28.1375 32.1952 29.0481 32.1952 29.9273V33.7798H26.4889C25.7849 33.7798 25.1097 33.5002 24.6118 33.0024C24.1139 32.5045 23.8343 31.8292 23.8343 31.1252L23.8538 25.4385Z" fill="white"/>
  <circle cx="49.5" cy="14.5" r="4.5" fill="#D7FF74"/>
  <defs>
    <linearGradient id="paint0_linear" x1="10" y1="10" x2="56" y2="58" gradientUnits="userSpaceOnUse">
      <stop stop-color="#0F172A"/>
      <stop offset="0.55" stop-color="#0F766E"/>
      <stop offset="1" stop-color="#38BDF8"/>
    </linearGradient>
  </defs>
</svg>
